<?xml version="1.0"?>
<svg width="250" height="250" xmlns="http://www.w3.org/2000/svg" xmlns:svg="http://www.w3.org/2000/svg" xmlns:xlink="http://www.w3.org/1999/xlink">
 <!-- Created with SVG-edit - https://github.com/SVG-Edit/svgedit-->
 <defs>
  <symbol height="50px" id="svg_2" viewBox="0 0 50 50" width="50px" x="0px" xmlns="http://www.w3.org/2000/svg" xmlns:xlink="http://www.w3.org/1999/xlink" y="0px">
   <g>
    <path d="m19.872,1.625c-9.872,0 -17.875,8.003 -17.875,17.875s8.003,17.875 17.875,17.875s17.875,-8.003 17.875,-17.875s-8.003,-17.875 -17.875,-17.875zm0,32.039c-7.823,0 -14.164,-6.341 -14.164,-14.164c0,-7.823 6.341,-14.164 14.164,-14.164c7.823,0 14.164,6.341 14.164,14.164c0,7.823 -6.341,14.164 -14.164,14.164z"/>
    <g>
     <path d="m31.928,36.662l6.679,6.679c1.404,1.405 3.685,1.405 5.09,0s1.405,-3.686 0,-5.09l-6.679,-6.679l-5.09,5.09z"/>
    </g>
   </g>
  </symbol>
 </defs>
 <g class="layer">
  <title>Layer 1</title>
  <g id="svg_4"/>
  <use fill="#989ea2" id="svg_5" stroke="#989ea2" transform="matrix(0.851398 0 0 0.842492 322.661 3.62435)" x="-347.561146" xlink:href="#svg_2" y="30.337687"/>
 </g>
</svg>