<?xml version="1.0" encoding="utf-8"?>
<!-- Generator: Adobe Illustrator 15.0.0, SVG Export Plug-In . SVG Version: 6.00 Build 0)  -->
<!DOCTYPE svg PUBLIC "-//W3C//DTD SVG 1.1//EN" "http://www.w3.org/Graphics/SVG/1.1/DTD/svg11.dtd">
<svg version="1.1" id="Layer_1" xmlns="http://www.w3.org/2000/svg" xmlns:xlink="http://www.w3.org/1999/xlink" x="0px" y="0px"
	 width="50px" height="50px" viewBox="0 0 50 50" enable-background="new 0 0 50 50" xml:space="preserve">
<g>
	<path d="M19.872,1.625C10,1.625,1.997,9.628,1.997,19.5S10,37.375,19.872,37.375S37.747,29.372,37.747,19.5
		S29.744,1.625,19.872,1.625z M19.872,33.664c-7.823,0-14.164-6.341-14.164-14.164c0-7.823,6.341-14.164,14.164-14.164
		c7.823,0,14.164,6.341,14.164,14.164C34.036,27.323,27.695,33.664,19.872,33.664z"/>
	<g>
		<path d="M31.928,36.662l6.679,6.679c1.404,1.405,3.685,1.405,5.09,0s1.405-3.686,0-5.09l-6.679-6.679L31.928,36.662z"/>
	</g>
</g>
</svg>
