<?xml version="1.0" encoding="utf-8"?>
<!-- Generator: Adobe Illustrator 22.1.0, SVG Export Plug-In . SVG Version: 6.00 Build 0)  -->
<svg version="1.1" id="Layer_1" xmlns:svg="http://www.w3.org/2000/svg"
	 xmlns="http://www.w3.org/2000/svg" xmlns:xlink="http://www.w3.org/1999/xlink" x="0px" y="0px" viewBox="0 0 250 250"
	 style="enable-background:new 0 0 250 250;" xml:space="preserve">
<style type="text/css">
	.st0{fill:#989EA2;stroke:#989EA2;}
</style>
<symbol  id="svg_2" viewBox="-21.9 -21.9 43.8 43.8">
	<g>
		<path class="st0" d="M-3.5-21.4c-9.9,0-17.9,8-17.9,17.9s8,17.9,17.9,17.9s17.9-8,17.9-17.9S6.4-21.4-3.5-21.4z M-3.5,10.7
			c-7.8,0-14.2-6.3-14.2-14.2s6.3-14.2,14.2-14.2s14.2,6.3,14.2,14.2S4.3,10.7-3.5,10.7z"/>
		<g>
			<path class="st0" d="M8.6,13.7l6.7,6.7c1.4,1.4,3.7,1.4,5.1,0s1.4-3.7,0-5.1l-6.7-6.7C13.6,8.6,8.6,13.7,8.6,13.7z"/>
		</g>
	</g>
</symbol>
<g>
	<title>Layer 1</title>
	<g id="svg_4">
	</g>
	
		<use xlink:href="#svg_2"  width="43.8" height="43.8" id="svg_5" x="-21.9" y="-21.9" transform="matrix(5.5291 0 0 5.4621 124.6694 126.2805)" style="overflow:visible;"/>
</g>
</svg>
